<svg width="28" height="28" viewBox="0 0 28 28" fill="none" xmlns="http://www.w3.org/2000/svg">
<rect width="28" height="28" rx="14" fill="#C39438"/>
<path d="M21.0761 9.98374C20.8852 9.91682 20.683 9.88794 20.4811 9.89874H12.7461C12.4486 9.89874 12.0661 9.85624 11.7686 9.94124C11.586 9.98278 11.4233 10.0856 11.3073 10.2325C11.1913 10.3794 11.1291 10.5616 11.1311 10.7487C11.1311 10.9742 11.2206 11.1904 11.38 11.3498C11.5394 11.5092 11.7556 11.5987 11.9811 11.5987H19.6736L18.9936 15.1687C18.9506 15.362 18.8428 15.5347 18.6883 15.6584C18.5337 15.782 18.3415 15.8492 18.1436 15.8487H11.7686C11.5723 15.8428 11.3834 15.7732 11.2301 15.6506C11.0768 15.528 10.9675 15.3589 10.9186 15.1687L9.55855 8.87874C9.47616 8.49833 9.26757 8.15695 8.96667 7.91006C8.66577 7.66316 8.29023 7.52526 7.90105 7.51874H7.30605C7.08062 7.51874 6.86442 7.60829 6.70501 7.7677C6.54561 7.9271 6.45605 8.1433 6.45605 8.36874C6.45605 8.59417 6.54561 8.81037 6.70501 8.96978C6.86442 9.12918 7.08062 9.21874 7.30605 9.21874H7.90105L9.26105 15.5087C9.51605 16.6987 10.5361 17.5062 11.7686 17.5062H18.1436C19.1636 17.5062 20.2261 16.8262 20.5236 15.8487C20.7361 15.1687 20.8636 14.4037 20.9911 13.7237C21.1186 13.0012 21.2886 12.2787 21.4161 11.5987C21.4647 11.4619 21.4933 11.3188 21.5011 11.1737C21.5362 11.035 21.5505 10.8917 21.5436 10.7487C21.5436 10.4087 21.3736 10.0687 21.0761 9.98374ZM9.85605 19.2062C9.85605 19.5444 9.99038 19.8687 10.2295 20.1078C10.4686 20.3469 10.7929 20.4812 11.1311 20.4812C11.4692 20.4812 11.7935 20.3469 12.0326 20.1078C12.2717 19.8687 12.4061 19.5444 12.4061 19.2062C12.4061 18.8681 12.2717 18.5438 12.0326 18.3047C11.7935 18.0656 11.4692 17.9312 11.1311 17.9312C10.7929 17.9312 10.4686 18.0656 10.2295 18.3047C9.99038 18.5438 9.85605 18.8681 9.85605 19.2062ZM17.5061 19.2062C17.5061 19.4584 17.5808 19.7049 17.7209 19.9146C17.861 20.1243 18.0602 20.2877 18.2931 20.3842C18.5261 20.4807 18.7825 20.5059 19.0298 20.4567C19.2771 20.4075 19.5043 20.2861 19.6826 20.1078C19.8609 19.9295 19.9824 19.7023 20.0316 19.455C20.0808 19.2077 20.0555 18.9513 19.959 18.7183C19.8625 18.4853 19.6991 18.2862 19.4894 18.1461C19.2797 18.006 19.0332 17.9312 18.7811 17.9312C18.4429 17.9312 18.1186 18.0656 17.8795 18.3047C17.6404 18.5438 17.5061 18.8681 17.5061 19.2062Z" fill="white"/>
</svg>
