<svg width="45" height="22" viewBox="0 0 45 22" fill="none" xmlns="http://www.w3.org/2000/svg">
<path d="M41.2231 4.14778C41.0434 3.88177 40.748 3.72216 40.4398 3.72216H34.4685V1.08866C34.4685 0.543342 34.0319 0.0911255 33.5054 0.0911255H11.8674C11.3409 0.0911255 10.9043 0.543342 10.9043 1.08866V17.2089C10.9043 17.7542 11.3409 18.2064 11.8674 18.2064H14.5898C15.0906 20.0153 16.7087 21.3586 18.6092 21.3586C20.5098 21.3586 22.1278 20.0286 22.6286 18.2064H33.2999C33.8007 20.0153 35.4188 21.3586 37.3193 21.3586C39.2199 21.3586 40.8379 20.0286 41.3387 18.2064H43.3292C43.8557 18.2064 44.2923 17.7542 44.2923 17.2089V9.00245C44.2923 8.78965 44.2281 8.59014 44.1125 8.43053L41.2231 4.14778ZM42.3789 9.29507H38.0641V5.73053H39.9518L42.3789 9.29507ZM12.8305 2.0995H32.5423V16.2246H22.7185C22.3461 14.2162 20.651 12.7 18.6092 12.7C16.5674 12.7 14.8595 14.2162 14.4999 16.2246H12.8305V2.0995ZM18.6092 19.3635C17.3636 19.3635 16.3491 18.3128 16.3491 17.0226C16.3491 15.7325 17.3636 14.6818 18.6092 14.6818C19.8548 14.6818 20.8693 15.7325 20.8693 17.0226C20.8693 18.3128 19.8548 19.3635 18.6092 19.3635ZM37.3322 19.3635C36.0865 19.3635 35.0721 18.3128 35.0721 17.0226C35.0721 15.7325 36.0865 14.6818 37.3322 14.6818C38.5778 14.6818 39.5923 15.7325 39.5923 17.0226C39.5923 18.3128 38.5778 19.3635 37.3322 19.3635ZM41.4415 16.2246C41.0691 14.2162 39.374 12.7 37.3322 12.7C36.2278 12.7 35.2133 13.1522 34.4685 13.8837V5.73053H36.1251V10.2926C36.1251 10.8379 36.5617 11.2901 37.0882 11.2901H42.3917V16.2246H41.4415Z" fill="black"/>
<path d="M1.64573 2.09951H8.51595C9.04245 2.09951 9.47907 1.64729 9.47907 1.10197C9.47907 0.556648 9.04245 0.104431 8.51595 0.104431H1.64573C1.11923 0.104431 0.682617 0.556648 0.682617 1.10197C0.682617 1.64729 1.11923 2.09951 1.64573 2.09951Z" fill="black"/>
<path d="M8.51652 3.73547H3.22581C2.69931 3.73547 2.2627 4.18769 2.2627 4.73301C2.2627 5.27833 2.69931 5.73055 3.22581 5.73055H8.51652C9.04302 5.73055 9.47964 5.27833 9.47964 4.73301C9.47964 4.18769 9.05587 3.73547 8.51652 3.73547Z" fill="black"/>
<path d="M8.51578 7.36652H5.17698C4.65048 7.36652 4.21387 7.81873 4.21387 8.36405C4.21387 8.90937 4.65048 9.36159 5.17698 9.36159H8.51578C9.04228 9.36159 9.4789 8.90937 9.4789 8.36405C9.4789 7.81873 9.05513 7.36652 8.51578 7.36652Z" fill="black"/>
<path d="M8.51631 10.9976H7.36058C6.83407 10.9976 6.39746 11.4498 6.39746 11.9951C6.39746 12.5404 6.83407 12.9926 7.36058 12.9926H8.51631C9.04282 12.9926 9.47943 12.5404 9.47943 11.9951C9.47943 11.4498 9.05566 10.9976 8.51631 10.9976Z" fill="black"/>
</svg>
