<svg width="36" height="28" viewBox="0 0 36 28" fill="none" xmlns="http://www.w3.org/2000/svg">
<path d="M17.4416 4.21392C17.4416 3.13835 16.5929 2.26321 15.5496 2.26321C14.5067 2.26321 13.6582 3.13827 13.6582 4.21392C13.6582 5.28957 14.5067 6.16463 15.5496 6.16463C16.5929 6.16463 17.4416 5.28957 17.4416 4.21392ZM14.3614 4.21392C14.3614 3.53807 14.8944 2.98814 15.5497 2.98814C16.2052 2.98814 16.7386 3.538 16.7386 4.21392C16.7386 4.88984 16.2053 5.4397 15.5497 5.4397C14.8944 5.4397 14.3614 4.88984 14.3614 4.21392Z" fill="black"/>
<path d="M15.8129 9.85029C16.1381 9.47152 18.9906 6.09684 18.9906 4.254C18.9906 2.29822 17.447 0.707001 15.5497 0.707001C13.6527 0.707001 12.1094 2.29814 12.1094 4.254C12.1094 6.09676 14.9613 9.47152 15.2864 9.85022L15.5496 10.1568L15.8129 9.85029ZM12.8126 4.25407C12.8126 2.69801 14.0404 1.432 15.5498 1.432C17.0594 1.432 18.2876 2.69794 18.2876 4.25407C18.2876 5.45999 16.5037 7.88922 15.5498 9.05512C14.596 7.88944 12.8126 5.46086 12.8126 4.25407Z" fill="black"/>
<path d="M6.60153 21.1565H3.21289V21.8814H6.60153V21.1565Z" fill="black"/>
<path d="M2.39384 21.1565H1.28613V21.8814H2.39384V21.1565Z" fill="black"/>
<path d="M6.60189 23.1367H4.55664V23.8617H6.60189V23.1367Z" fill="black"/>
<path d="M13.5692 15.7491H11.7676V16.474H13.5692V15.7491Z" fill="black"/>
<path d="M3.01074 8.39993V15.3017H3.78095H5.77283L9.48582 18.1818C9.47471 18.2825 9.46557 18.3846 9.45896 18.4882C8.39851 19.4383 7.74249 20.7425 7.74249 22.1799V23.7008H9.01859C9.12336 24.8837 9.73529 25.917 10.6278 26.5681H5.7028V27.293H18.7809V26.5681H15.0461C15.4921 26.2428 15.8679 25.8223 16.1456 25.335H18.5073L19.6339 24.7355C19.9445 24.9097 20.3002 25.0088 20.6777 25.0088H25.7675L25.9337 25.0086L26.0391 24.8765C26.0452 24.8689 26.1636 24.7232 26.3825 24.4911C26.6601 25.355 27.2203 26.0834 27.9424 26.5681H22.0153V27.293H34.7141V26.5681H32.1158C33.1655 25.8618 33.8611 24.6412 33.8611 23.2555C33.8611 22.3776 33.5745 21.5286 33.061 20.8407C33.4281 20.7922 33.8058 20.7655 34.1934 20.7655C34.488 20.7655 34.5856 20.5584 34.6085 20.4949C34.7258 20.1696 34.4473 19.9221 34.0259 19.5474C33.931 19.463 33.8414 19.3834 33.7895 19.3296C32.9433 18.4564 31.8778 17.8932 30.722 17.6912L27.8407 10.4116H28.7092V10.0718H28.7813C29.3999 10.0718 29.903 9.553 29.903 8.91535V8.89049C29.903 8.25284 29.3999 7.73401 28.7813 7.73401H28.7092V7.39417H26.2772C25.4695 7.39417 24.8124 8.07168 24.8124 8.90441V9.60614C24.8124 9.63332 24.8138 9.66007 24.8163 9.68653H24.3879L22.8924 8.14454H21.1358V8.86946H22.6011L24.0967 10.4115H25.5074L24.727 12.8498L25.7807 19.2855C25.2627 19.8071 24.8391 20.4302 24.542 21.1257H20.5508C20.3614 20.7256 20.2081 20.3089 20.0926 19.8776C19.5739 17.9398 19.9701 16.2283 20.3073 15.2743C20.6741 15.1791 20.9467 14.8371 20.9467 14.4298C20.9467 13.2427 20.01 12.277 18.8586 12.277H11.6215C10.8127 12.277 10.1546 12.9554 10.1546 13.7893C10.1546 14.0779 10.2349 14.347 10.3715 14.5767H9.70498V8.39993H3.01074ZM3.71387 14.5768V9.12486H9.00186V14.5768H3.78095H3.71387ZM8.44562 22.1798C8.44562 19.6801 10.7971 17.6463 13.6874 17.6463H15.0157C16.9281 17.6463 18.484 18.9837 18.484 20.6275V22.3811V22.7436V22.9758H16.6566C16.4785 20.9645 14.8337 19.3837 12.8375 19.3837C10.841 19.3837 9.19592 20.9645 9.01789 22.9758H8.44569L8.44562 22.1798ZM9.72523 22.9758C9.90059 21.365 11.2291 20.1086 12.8375 20.1086C14.4455 20.1086 15.7738 21.365 15.9491 22.9758H9.72523ZM13.8742 23.7008C13.7272 24.1461 13.3185 24.4678 12.8375 24.4678C12.3562 24.4678 11.9473 24.1461 11.8002 23.7008H13.8742ZM12.8368 26.568C11.2287 26.568 9.90045 25.3115 9.72516 23.7008H11.0728C11.2369 24.5504 11.9656 25.1927 12.8375 25.1927C13.709 25.1927 14.4375 24.5504 14.6015 23.7008H15.9491C15.9144 24.0201 15.8345 24.3255 15.7159 24.61H14.4697V25.3349H15.2962C14.7221 26.085 13.8334 26.568 12.8368 26.568ZM18.3367 24.61H16.4678C16.5635 24.3203 16.6277 24.016 16.6556 23.7008H18.69C18.7793 23.8974 18.895 24.0786 19.0325 24.2397L18.3367 24.61ZM33.1581 23.2554C33.1581 25.0359 31.7528 26.4844 30.0255 26.4844C28.5459 26.4844 27.2601 25.3941 26.9597 23.9188C27.3082 23.5945 27.7494 23.2187 28.2721 22.8419C28.2426 22.975 28.2266 23.1131 28.2266 23.2553C28.2266 24.2779 29.0335 25.11 30.0255 25.11C31.0175 25.11 31.8245 24.2779 31.8245 23.2553C31.8245 22.4508 31.3251 21.7646 30.6293 21.5083C31.1376 21.2955 31.6801 21.1147 32.2535 20.985C32.8303 21.5885 33.1581 22.4059 33.1581 23.2554ZM29.2377 22.4719L29.7132 23.4215L30.3379 23.089L29.8625 22.1393C29.9158 22.1311 29.97 22.1254 30.0255 22.1254C30.6298 22.1254 31.1213 22.6323 31.1213 23.2553C31.1213 23.8783 30.6298 24.3851 30.0255 24.3851C29.4212 24.3851 28.9297 23.8783 28.9297 23.2553C28.9297 22.9511 29.0474 22.6752 29.2377 22.4719ZM28.7814 8.45894C29.0122 8.45894 29.2 8.65249 29.2 8.89049V8.91535C29.2 9.15327 29.0122 9.34683 28.7814 9.34683H28.7093V8.45894H28.7814ZM25.5156 9.60621V8.90448C25.5156 8.47141 25.8572 8.11916 26.2773 8.11916H28.0061V9.68668H26.2703H25.5936C25.5505 9.6866 25.5156 9.6505 25.5156 9.60621ZM25.4494 12.9064L26.2477 10.4119H27.0815L29.9307 17.6106C29.8736 17.6089 29.8167 17.6062 29.7593 17.6062C28.5161 17.6062 27.3527 18.0268 26.4048 18.742L25.4494 12.9064ZM29.7594 18.3311C31.0935 18.3311 32.348 18.8677 33.2918 19.8417C33.3542 19.9062 33.4393 19.9827 33.5309 20.0644C31.131 20.2368 29.1583 21.3126 27.8861 22.2273C26.6768 23.0969 25.8854 23.9599 25.6066 24.2838H20.6777C19.9777 24.2838 19.389 23.7827 19.2296 23.1094H21.869L21.8662 23.1059L24.7688 23.1057L24.8099 22.7918C25.143 20.2488 27.2708 18.3311 29.7594 18.3311ZM24.2866 21.8507C24.2378 22.0242 24.1961 22.2009 24.1627 22.3809L21.3048 22.381C21.1768 22.2086 21.0571 22.0317 20.9453 21.8508H24.2866V21.8507ZM20.4407 22.381L19.187 22.3811V20.6275C19.187 18.584 17.3157 16.9214 15.0156 16.9214H13.6873C12.4008 16.9214 11.2094 17.2859 10.2354 17.9028C10.439 16.7056 10.9564 15.7774 11.2713 15.302H19.5544C19.2133 16.3818 18.8927 18.1196 19.4149 20.0705C19.6351 20.8933 19.9793 21.6676 20.4407 22.381ZM11.6215 13.002H18.8587C19.6224 13.002 20.2436 13.6425 20.2436 14.4299C20.2436 14.5108 20.1797 14.5768 20.1011 14.5768H11.6215C11.2004 14.5768 10.8578 14.2236 10.8578 13.7894C10.8578 13.3552 11.2004 13.002 11.6215 13.002ZM10.4398 15.3017C10.1537 15.8025 9.821 16.5165 9.62202 17.3803L6.94241 15.3017H9.70498H10.4398Z" fill="black"/>
<path d="M8.37427 9.98889H6.35742V10.7138H8.37427V9.98889Z" fill="black"/>
<path d="M20.9836 26.568H19.7656V27.2929H20.9836V26.568Z" fill="black"/>
<path d="M4.89451 26.568H3.78125V27.2929H4.89451V26.568Z" fill="black"/>
</svg>
