<svg width="37" height="37" viewBox="0 0 37 37" fill="none" xmlns="http://www.w3.org/2000/svg">
<rect width="37" height="37" rx="18.5" fill="#B5B5B5"/>
<g clip-path="url(#clip0_153_11421)">
<path d="M23.375 10H13.625C12.7577 10 12 10.7431 12 11.5938V25.4062C12 26.2563 12.7577 27 13.625 27H23.375C24.2423 27 25 26.2569 25 25.4062V11.5938C25 10.7431 24.2417 10 23.375 10ZM14.1667 16.9062C14.1667 16.6141 14.4104 16.375 14.7083 16.375H15.7917C16.0896 16.375 16.3333 16.6141 16.3333 16.9062V17.9688C16.3333 18.2609 16.0896 18.5 15.7917 18.5H14.7083C14.4104 18.5 14.1667 18.2609 14.1667 17.9688V16.9062ZM14.1667 20.0938C14.1667 19.8016 14.4104 19.5625 14.7083 19.5625H15.7917C16.0896 19.5625 16.3333 19.8016 16.3333 20.0938V21.1562C16.3333 21.4484 16.0896 21.6875 15.7917 21.6875H14.7083C14.4104 21.6875 14.1667 21.4484 14.1667 21.1562V20.0938ZM19.5833 24.3438C19.5833 24.636 19.3396 24.875 19.0417 24.875H14.7083C14.4104 24.875 14.1667 24.6359 14.1667 24.3438V23.2812C14.1667 22.9891 14.4104 22.75 14.7083 22.75H19.0417C19.3396 22.75 19.5833 22.989 19.5833 23.2812V24.3438ZM19.5833 21.1562C19.5833 21.4485 19.3396 21.6875 19.0417 21.6875H17.9583C17.6604 21.6875 17.4167 21.4484 17.4167 21.1562V20.0938C17.4167 19.8016 17.6604 19.5625 17.9583 19.5625H19.0417C19.3396 19.5625 19.5833 19.8016 19.5833 20.0938V21.1562ZM19.5833 17.9688C19.5833 18.2609 19.3396 18.5 19.0417 18.5H17.9583C17.6604 18.5 17.4167 18.2609 17.4167 17.9688V16.9062C17.4167 16.6141 17.6604 16.375 17.9583 16.375H19.0417C19.3396 16.375 19.5833 16.6141 19.5833 16.9062V17.9688ZM22.8333 24.3438C22.8333 24.636 22.5896 24.875 22.2917 24.875H21.2083C20.9105 24.875 20.6667 24.636 20.6667 24.3438V23.2812C20.6667 22.989 20.9105 22.75 21.2083 22.75H22.2917C22.5896 22.75 22.8333 22.989 22.8333 23.2812V24.3438ZM22.8333 21.1562C22.8333 21.4485 22.5896 21.6875 22.2917 21.6875H21.2083C20.9105 21.6875 20.6667 21.4485 20.6667 21.1562V20.0938C20.6667 19.8016 20.9104 19.5625 21.2083 19.5625H22.2917C22.5896 19.5625 22.8333 19.8016 22.8333 20.0938V21.1562ZM22.8333 17.9688C22.8333 18.2609 22.5896 18.5 22.2917 18.5H21.2083C20.9104 18.5 20.6667 18.2609 20.6667 17.9688V16.9062C20.6667 16.6141 20.9104 16.375 21.2083 16.375H22.2917C22.5896 16.375 22.8333 16.6141 22.8333 16.9062V17.9688ZM22.8333 14.7812C22.8333 15.0734 22.5896 15.3125 22.2917 15.3125H14.7083C14.4104 15.3125 14.1667 15.0734 14.1667 14.7812V12.6562C14.1667 12.3641 14.4104 12.125 14.7083 12.125H22.2917C22.5896 12.125 22.8333 12.3641 22.8333 12.6562V14.7812Z" fill="white"/>
</g>
<defs>
<clipPath id="clip0_153_11421">
<rect width="13" height="17" fill="white" transform="translate(12 10)"/>
</clipPath>
</defs>
</svg>
