<svg width="27" height="29" viewBox="0 0 28 29" fill="none" xmlns="http://www.w3.org/2000/svg">
<path d="M11.4996 15.9024C14.071 15.9024 16.1555 13.8179 16.1555 11.2466C16.1555 8.6752 14.071 6.5907 11.4996 6.5907C8.92825 6.5907 6.84375 8.6752 6.84375 11.2466C6.84375 13.8179 8.92825 15.9024 11.4996 15.9024Z" fill="#C39438"/>
<path d="M22.4524 10.8342C22.6053 10.636 22.7169 10.409 22.7805 10.1669C22.8441 9.92475 22.8585 9.6723 22.8228 9.42449C22.7871 9.17668 22.7021 8.93856 22.5727 8.72422C22.4433 8.50988 22.2722 8.32368 22.0696 8.17665L21.2766 7.60118C21.0151 7.41156 20.8072 7.1575 20.673 6.86371C20.5388 6.56992 20.4829 6.2464 20.5108 5.92462L20.5946 4.94813C20.6175 4.69792 20.5898 4.44567 20.5132 4.2064C20.4365 3.96713 20.3124 3.74575 20.1483 3.55546C19.9843 3.36517 19.7836 3.20987 19.5582 3.09882C19.3328 2.98776 19.0874 2.92323 18.8365 2.90907L17.8578 2.8547C17.5354 2.83634 17.2233 2.73489 16.9517 2.5602C16.6802 2.38552 16.4584 2.14355 16.3081 1.85782L15.8549 0.990085C15.7374 0.768781 15.5767 0.573328 15.3822 0.415318C15.1878 0.257308 14.9635 0.139958 14.7229 0.0702298C14.4822 0.000501312 14.23 -0.0201864 13.9812 0.00939349C13.7323 0.0389734 13.492 0.118219 13.2744 0.242429L12.4225 0.725007C12.1413 0.884256 11.8236 0.967956 11.5004 0.967956C11.1772 0.967956 10.8595 0.884256 10.5783 0.725007L9.72642 0.242429C9.50836 0.118924 9.26771 0.0404747 9.01875 0.0117371C8.7698 -0.0170006 8.5176 0.00455835 8.27714 0.0751349C8.03667 0.145711 7.81283 0.263868 7.61889 0.422594C7.42495 0.58132 7.26487 0.777382 7.14814 0.999148L6.69502 1.86688C6.54465 2.15262 6.32292 2.39458 6.05137 2.56927C5.77982 2.74395 5.46769 2.8454 5.14533 2.86376L4.16658 2.91813C3.91573 2.9323 3.67029 2.99683 3.44491 3.10788C3.21953 3.21893 3.01882 3.37424 2.85475 3.56452C2.69068 3.75481 2.56661 3.97619 2.48993 4.21546C2.41326 4.45473 2.38555 4.70699 2.40846 4.95719L2.49228 5.93368C2.52017 6.25546 2.4643 6.57898 2.33011 6.87278C2.19592 7.16657 1.98797 7.42063 1.7265 7.61024L0.933534 8.18571C0.730888 8.33274 0.559805 8.51894 0.430415 8.73328C0.301026 8.94762 0.215962 9.18575 0.180259 9.43355C0.144556 9.68136 0.15894 9.93381 0.222561 10.176C0.286181 10.4181 0.397744 10.645 0.550643 10.8433L1.14877 11.6181C1.34619 11.8736 1.47415 12.1759 1.5202 12.4955C1.56626 12.815 1.52884 13.1411 1.41158 13.442L1.05588 14.3482C0.964948 14.5814 0.921735 14.8305 0.928796 15.0808C0.935856 15.331 0.993048 15.5773 1.09698 15.805C1.20092 16.0327 1.34949 16.2373 1.53389 16.4066C1.7183 16.5759 1.9348 16.7064 2.17057 16.7906L3.09267 17.1191C3.39712 17.2273 3.66836 17.4125 3.87997 17.6567C4.09159 17.9009 4.23638 18.1957 4.30025 18.5124L4.47697 19.3734L2.12299 27.0244L5.85674 25.8553L8.18127 29L10.3042 22.0604C10.6219 22.3241 11.018 22.4754 11.4306 22.4905C11.8433 22.5057 12.2494 22.3839 12.5856 22.1442L14.8196 29L17.1441 25.8553L20.8778 27.0244L18.4672 19.6294C18.4831 19.5773 18.4967 19.5274 18.508 19.4731L18.7006 18.5124C18.7644 18.1957 18.9092 17.9009 19.1208 17.6567C19.3325 17.4125 19.6037 17.2273 19.9081 17.1191L20.8303 16.7906C21.066 16.7064 21.2825 16.5759 21.4669 16.4066C21.6513 16.2373 21.7999 16.0327 21.9038 15.805C22.0078 15.5773 22.065 15.331 22.072 15.0808C22.0791 14.8305 22.0359 14.5814 21.9449 14.3482L21.5892 13.442C21.472 13.1411 21.4346 12.815 21.4806 12.4955C21.5267 12.1759 21.6546 11.8736 21.8521 11.6181L22.4524 10.8342ZM5.03205 11.2466C5.03205 9.96725 5.41141 8.71666 6.12217 7.65294C6.83292 6.58923 7.84314 5.76016 9.02507 5.27059C10.207 4.78101 11.5076 4.65292 12.7623 4.9025C14.0171 5.15208 15.1696 5.76813 16.0742 6.67275C16.9788 7.57737 17.5949 8.72992 17.8445 9.98466C18.0941 11.2394 17.966 12.54 17.4764 13.7219C16.9868 14.9038 16.1578 15.9141 15.094 16.6248C14.0303 17.3356 12.7797 17.7149 11.5004 17.7149C9.78545 17.7131 8.14124 17.0311 6.92858 15.8184C5.71591 14.6057 5.03385 12.9615 5.03205 11.2466Z" fill="#C39438"/>
</svg>
