<?xml version="1.0" standalone="no"?>
<!DOCTYPE svg PUBLIC "-//W3C//DTD SVG 20010904//EN"
 "http://www.w3.org/TR/2001/REC-SVG-20010904/DTD/svg10.dtd">
<svg version="1.0" xmlns="http://www.w3.org/2000/svg"
 width="127.000000pt" height="93.000000pt" viewBox="0 0 127.000000 93.000000"
 preserveAspectRatio="xMidYMid meet">
<metadata>
Created by potrace 1.16, written by Peter Selinger 2001-2019
</metadata>
<g transform="translate(0.000000,93.000000) scale(0.100000,-0.100000)"
fill="#000000" stroke="none">
<path d="M512 863 c-2 -68 -3 -73 -24 -73 -13 0 -43 -10 -68 -23 -40 -19 -61
-22 -198 -22 -140 0 -155 -2 -168 -19 -17 -24 -17 -58 1 -111 l14 -40 -5 40
-4 40 14 -37 c10 -24 12 -47 6 -65 -7 -27 -8 -27 -33 28 -40 87 -44 125 -18
162 l22 32 -25 -28 c-19 -20 -26 -39 -26 -68 0 -39 35 -138 53 -150 5 -3 1 -9
-8 -13 -15 -5 -15 -7 0 -23 15 -14 16 -29 11 -94 -10 -108 3 -111 97 -26 45
41 59 44 230 53 l127 7 0 -70 c0 -38 -2 -72 -4 -74 -3 -3 -45 -1 -93 3 -131
11 -313 12 -324 1 -6 -6 26 -9 88 -9 54 1 151 -3 216 -8 93 -7 117 -12 117
-24 0 -16 -28 -15 -250 8 -83 9 -114 8 -145 -2 l-39 -13 3 -64 c2 -43 -1 -61
-8 -56 -6 3 -8 17 -5 31 4 16 -3 45 -21 85 -24 54 -26 67 -20 133 5 50 4 76
-4 80 -15 10 -14 49 2 66 10 12 9 12 -6 0 -15 -11 -18 -23 -13 -59 8 -61 8
-66 0 -133 -6 -49 -3 -63 19 -103 17 -30 25 -59 24 -86 -1 -39 15 -63 37 -56
16 5 27 59 22 104 -5 42 -5 42 30 49 20 4 82 1 137 -6 56 -7 132 -15 170 -17
l67 -5 0 -104 c0 -97 1 -104 20 -104 20 0 20 6 18 468 -1 411 -3 439 -9 237
-11 -399 -13 -408 -19 -85 -3 173 -6 282 -8 243z m-2 -253 l0 -160 -132 0
c-73 0 -150 -5 -170 -10 -22 -7 -56 -30 -85 -60 l-48 -49 -3 67 c-2 37 -5 75
-8 84 -3 10 3 21 16 28 25 14 26 47 0 125 -13 42 -19 52 -21 35 -1 -19 -3 -20
-6 -7 -3 10 3 27 13 38 16 17 30 19 165 17 121 -1 151 1 172 15 21 13 75 33
100 36 4 1 7 -71 7 -159z"/>
<path d="M636 615 c-4 -22 -19 -86 -33 -142 -27 -111 -26 -136 9 -131 17 2 25
13 33 48 14 58 40 66 48 15 3 -20 11 -43 18 -51 17 -21 49 -18 49 5 0 40 -60
294 -67 287 -4 -4 7 -59 47 -239 11 -52 -11 -44 -26 9 -9 33 -15 39 -41 42
-28 3 -31 0 -42 -42 -6 -26 -16 -46 -21 -46 -14 0 -13 3 15 136 14 65 24 125
22 133 -2 9 -7 -2 -11 -24z"/>
<path d="M1149 614 c-20 -24 -25 -183 -6 -208 17 -24 53 -14 61 17 3 12 6 51
6 87 0 92 -29 142 -61 104z"/>
</g>
</svg>
