<svg width="37" height="37" viewBox="0 0 37 37" fill="none" xmlns="http://www.w3.org/2000/svg">
<rect width="37" height="37" rx="18.5" fill="#B5B5B5"/>
<g clip-path="url(#clip0_153_11406)">
<path d="M21.5664 9.90625C22.8915 10.2619 24.0998 10.9598 25.07 11.93C26.0402 12.9002 26.7381 14.1085 27.0938 15.4336" stroke="white" stroke-width="2" stroke-linecap="round" stroke-linejoin="round"/>
<path d="M20.7559 12.9238C21.5529 13.1355 22.2797 13.5541 22.8628 14.1372C23.4459 14.7203 23.8645 15.4471 24.0762 16.2441" stroke="white" stroke-width="2" stroke-linecap="round" stroke-linejoin="round"/>
<path d="M15.0332 18.1875C15.8371 19.8477 17.1796 21.1867 18.8418 21.9863C18.9644 22.0444 19.1 22.0695 19.2353 22.0592C19.3706 22.049 19.5008 22.0036 19.6133 21.9277L22.0547 20.2969C22.1626 20.2237 22.2872 20.1791 22.417 20.1671C22.5468 20.1552 22.6775 20.1763 22.7969 20.2285L27.3672 22.1914C27.5234 22.2564 27.6539 22.371 27.7386 22.5174C27.8233 22.6639 27.8575 22.8341 27.8359 23.002C27.6911 24.1326 27.1392 25.1716 26.2836 25.9248C25.428 26.6779 24.3273 27.0935 23.1875 27.0938C19.6651 27.0938 16.287 25.6945 13.7962 23.2038C11.3055 20.713 9.90625 17.3349 9.90625 13.8125C9.90651 12.6727 10.3221 11.572 11.0752 10.7164C11.8284 9.86077 12.8674 9.30892 13.998 9.16406C14.1659 9.14251 14.3361 9.17671 14.4826 9.26141C14.629 9.34612 14.7436 9.47661 14.8086 9.63281L16.7715 14.2129C16.8225 14.3304 16.8439 14.4587 16.8337 14.5864C16.8234 14.7141 16.782 14.8374 16.7129 14.9453L15.082 17.4258C15.0094 17.538 14.9668 17.6669 14.9583 17.8003C14.9497 17.9336 14.9755 18.067 15.0332 18.1875Z" stroke="white" stroke-width="2" stroke-linecap="round" stroke-linejoin="round"/>
</g>
<defs>
<clipPath id="clip0_153_11406">
<rect width="25" height="25" fill="white" transform="translate(6 6)"/>
</clipPath>
</defs>
</svg>
