<svg width="28" height="28" viewBox="0 0 28 28" fill="none" xmlns="http://www.w3.org/2000/svg">
<path d="M20.2344 9.73438C21.5461 9.73438 22.6094 8.67105 22.6094 7.35938C22.6094 6.0477 21.5461 4.98438 20.2344 4.98438C18.9227 4.98438 17.8594 6.0477 17.8594 7.35938C17.8594 8.67105 18.9227 9.73438 20.2344 9.73438Z" stroke="#C39438" stroke-width="2.8" stroke-miterlimit="10" stroke-linecap="round" stroke-linejoin="round"/>
<path d="M25.4733 13.3697L13.5252 25.2792C12.5972 26.2041 11.0956 26.2029 10.1691 25.2765L2.21613 17.3235C1.28723 16.3946 1.28884 14.888 2.21972 13.9611L14.1177 2.11391C14.5628 1.67071 15.1653 1.42188 15.7935 1.42188H23.7966C25.1083 1.42188 26.1716 2.4852 26.1716 3.79687V11.6876C26.1716 12.3188 25.9204 12.9241 25.4733 13.3697Z" stroke="#C39438" stroke-width="2.8" stroke-miterlimit="10" stroke-linecap="round" stroke-linejoin="round"/>
</svg>
